<svg xmlns="http://www.w3.org/2000/svg" xmlns:xlink="http://www.w3.org/1999/xlink" viewBox="0 0 32 32" width="25" height="25" style="" filter="none">
    
    <g>
    <path d="M19.14 1.67c3.019 0.658 5.69 2.246 7.699 4.449-0.671 1.078-0.741 2.482-0.061 3.659 0.68 1.178 1.932 1.82 3.203 1.776 0.446 1.402 0.686 2.896 0.686 4.446s-0.24 3.044-0.686 4.446c-1.271-0.043-2.523 0.598-3.203 1.776-0.679 1.177-0.61 2.581 0.061 3.659-2.009 2.202-4.68 3.79-7.699 4.449l-0-0c-0.598-1.122-1.78-1.885-3.14-1.885s-2.541 0.763-3.139 1.885l-0 0c-3.019-0.658-5.69-2.246-7.699-4.449 0.671-1.078 0.741-2.482 0.061-3.659-0.68-1.178-1.933-1.82-3.203-1.776-0.446-1.402-0.686-2.896-0.686-4.446s0.24-3.044 0.686-4.446c1.271 0.043 2.523-0.598 3.203-1.776 0.679-1.177 0.61-2.581-0.061-3.659 2.009-2.202 4.68-3.79 7.699-4.449l0 0c0.598 1.122 1.78 1.885 3.139 1.885 1.355 0 2.533-0.758 3.133-1.873zM16 12.444c-1.964 0-3.556 1.592-3.556 3.556s1.592 3.556 3.556 3.556 3.556-1.592 3.556-3.556-1.592-3.556-3.556-3.556z" fill="rgba(24,24,56,1)"></path>
    </g>
  </svg>