<svg xmlns="http://www.w3.org/2000/svg" xmlns:xlink="http://www.w3.org/1999/xlink" viewBox="0 0 32 32" width="25" height="25" style="" filter="none">
    
    <g>
    <path d="M5.33 17.826c-1.085-0.885-1.778-2.232-1.778-3.741 0-0.719 0.159-1.419 0.459-2.057l1.117-4.47c0.198-0.791 0.909-1.347 1.725-1.347h18.286c0.816 0 1.527 0.555 1.725 1.347l1.117 4.47c0.301 0.638 0.459 1.337 0.459 2.057 0 1.509-0.693 2.857-1.778 3.741v10.163c0 0.736-0.597 1.333-1.333 1.333h-18.667c-0.736 0-1.333-0.597-1.333-1.333v-10.163zM7.108 18.741v8.804h17.778v-8.804c-0.405 0.11-0.83 0.169-1.27 0.169-1.548 0-2.927-0.729-3.81-1.863-0.883 1.134-2.261 1.863-3.81 1.863s-2.927-0.729-3.81-1.863c-0.883 1.134-2.261 1.863-3.81 1.863-0.439 0-0.865-0.059-1.27-0.169zM7.108 2.656h17.778c0.491 0 0.889 0.398 0.889 0.889s-0.398 0.889-0.889 0.889h-17.778c-0.491 0-0.889-0.398-0.889-0.889s0.398-0.889 0.889-0.889z" fill="rgba(24,24,56,1)"></path>
    </g>
  </svg>